# xmcd CD database file
#
# Track frame offsets:
#	150
#	17312
#	37665
#	53190
#	66102
#	81965
#	99970
#	111852
#	123515
#	136450
#	154680
#	172352
#	183105
#	202567
#	220657
#	250842
#	262062
#	272637
#	284527
#	299257
#	312995
#	328190
#
# Disc length: 4532 seconds
#
# Revision: 3
# Processed by: cddbd v1.4PL0 Copyright (c) Steve Scherf et al.
# Submitted via: jetAudio 5
#
DISCID=3c11b216
DTITLE=Joe Dassin - Le Meilleur
DYEAR=1900
DGENRE=
TTITLE0=Dans LesYeux D'Émilie
TTITLE1=L' été  Indien
TTITLE2=Et Si Tu N'Existais Pas
TTITLE3=À Toi
TTITLE4=Le Dernier Slow
TTITLE5=Cécilia
TTITLE6=Siffler Sur La Colline
TTITLE7=Ça M'Avance À Quoi
TTITLE8=Guantanamera
TTITLE9=Salut Les Amoureux
TTITLE10=Il Était Une Fois Nous Deux
TTITLE11=L'Amérique
TTITLE12=La Vie Se Chante, La Vie Se Pleure
TTITLE13=Le Café Des 3 Colombes
TTITLE14=Le Jardin Du Luxembourg
TTITLE15=Le Chemin De Papa
TTITLE16=Le Moustique
TTITLE17=Les Champs Élysées
TTITLE18=Si Tu T'Appelles Mélancolie
TTITLE19=Ça Va Pas Changer Le Monde
TTITLE20=Le Petit Pain Au Chocolat
TTITLE21=Les Dalton
EXTD=
EXTT0=
EXTT1=
EXTT2=
EXTT3=
EXTT4=
EXTT5=
EXTT6=
EXTT7=
EXTT8=
EXTT9=
EXTT10=
EXTT11=
EXTT12=
EXTT13=
EXTT14=
EXTT15=
EXTT16=
EXTT17=
EXTT18=
EXTT19=
EXTT20=
EXTT21=
PLAYORDER=
